<svg xmlns="http://www.w3.org/2000/svg" xmlns:xlink="http://www.w3.org/1999/xlink" width="414" height="786" viewBox="0 0 414 786"><defs><style>.a{fill:#fff;}.b{fill:#08083d;}.c{clip-path:url(#a);}.d{fill:rgba(97,132,216,0.1);}</style><clipPath id="a"><rect class="a" width="414" height="599"/></clipPath></defs><g transform="translate(-1513 -100)"><rect class="b" width="414" height="785" transform="translate(1513 101)"/><g class="c" transform="translate(1513 100)"><g transform="translate(780.99 -241.054) rotate(90)"><g transform="translate(548.516 513.685) rotate(135)"><path class="d" d="M26.355,37.147l1.285-15.3L15.092,22.9,13.807,38.2l-7.415.623,1.428-17L.976,22.4l.381-4.533L8.2,17.292l1-11.9L9.618.419l25.96,14.574,6.845-.575-.381,4.533-6.845.575-1.428,17Z" transform="translate(13.612 312.53)"/><path class="d" d="M26.355,37.147l1.285-15.3L15.092,22.9,13.807,38.2l-7.415.623,1.428-17L.976,22.4l.381-4.533L8.2,17.292l1-11.9L9.618.419l25.96,14.574,6.845-.575-.381,4.533-6.845.575-1.428,17Z" transform="translate(26.619 157.674)"/><path class="d" d="M26.355,37.147l1.285-15.3L15.092,22.9,13.807,38.2l-7.415.623,1.428-17L.976,22.4l.381-4.533L8.2,17.292l1-11.9L9.618.419l25.96,14.574,6.845-.575-.381,4.533-6.845.575-1.428,17Z" transform="translate(20.116 235.102)"/><path class="d" d="M26.355,37.147l1.285-15.3L15.092,22.9,13.807,38.2l-7.415.623,1.428-17L.976,22.4l.381-4.533L8.2,17.292l1-11.9L9.618.419l25.96,14.574,6.845-.575-.381,4.533-6.845.575-1.428,17Z" transform="translate(33.123 80.245)"/><path class="d" d="M26.355,37.147l1.285-15.3L15.092,22.9,13.807,38.2l-7.415.623,1.428-17L.976,22.4l.381-4.533L8.2,17.292l1-11.9L9.618.419l25.96,14.574,6.845-.575-.381,4.533-6.845.575-1.428,17Z" transform="translate(193.279 297.438)"/><path class="d" d="M26.355,37.147l1.285-15.3L15.092,22.9,13.807,38.2l-7.415.623,1.428-17L.976,22.4l.381-4.533L8.2,17.292l1-11.9L9.618.419l25.96,14.574,6.845-.575-.381,4.533-6.845.575-1.428,17Z" transform="translate(206.287 142.582)"/><path class="d" d="M26.355,37.147l1.285-15.3L15.092,22.9,13.807,38.2l-7.415.623,1.428-17L.976,22.4l.381-4.533L8.2,17.292l1-11.9L9.618.419l25.96,14.574,6.845-.575-.381,4.533-6.845.575-1.428,17Z" transform="translate(199.783 220.01)"/><path class="d" d="M26.355,37.147l1.285-15.3L15.092,22.9,13.807,38.2l-7.415.623,1.428-17L.976,22.4l.381-4.533L8.2,17.292l1-11.9L9.618.419l25.96,14.574,6.845-.575-.381,4.533-6.845.575-1.428,17Z" transform="translate(212.791 65.154)"/><path class="d" d="M26.355,37.147l1.285-15.3L15.092,22.9,13.807,38.2l-7.415.623,1.428-17L.976,22.4l.381-4.533L8.2,17.292l1-11.9L9.618.419l25.96,14.574,6.845-.575-.381,4.533-6.845.575-1.428,17Z" transform="translate(103.446 304.984)"/><path class="d" d="M26.355,37.147l1.285-15.3L15.092,22.9,13.807,38.2l-7.415.623,1.428-17L.976,22.4l.381-4.533L8.2,17.292l1-11.9L9.618.419l25.96,14.574,6.845-.575-.381,4.533-6.845.575-1.428,17Z" transform="translate(116.453 150.128)"/><path class="d" d="M26.355,37.147l1.285-15.3L15.092,22.9,13.807,38.2l-7.415.623,1.428-17L.976,22.4l.381-4.533L8.2,17.292l1-11.9L9.618.419l25.96,14.574,6.845-.575-.381,4.533-6.845.575-1.428,17Z" transform="translate(109.949 227.556)"/><path class="d" d="M26.355,37.147l1.285-15.3L15.092,22.9,13.807,38.2l-7.415.623,1.428-17L.976,22.4l.381-4.533L8.2,17.292l1-11.9L9.618.419l25.96,14.574,6.845-.575-.381,4.533-6.845.575-1.428,17Z" transform="translate(122.957 72.7)"/><path class="d" d="M26.355,37.147l1.285-15.3L15.092,22.9,13.807,38.2l-7.415.623,1.428-17L.976,22.4l.381-4.533L8.2,17.292l1-11.9L9.618.419l25.96,14.574,6.845-.575-.381,4.533-6.845.575-1.428,17Z" transform="translate(283.113 289.892)"/><path class="d" d="M26.355,37.147l1.285-15.3L15.092,22.9,13.807,38.2l-7.415.623,1.428-17L.976,22.4l.381-4.533L8.2,17.292l1-11.9L9.618.419l25.96,14.574,6.845-.575-.381,4.533-6.845.575-1.428,17Z" transform="translate(296.121 135.036)"/><path class="d" d="M26.355,37.147l1.285-15.3L15.092,22.9,13.807,38.2l-7.415.623,1.428-17L.976,22.4l.381-4.533L8.2,17.292l1-11.9L9.618.419l25.96,14.574,6.845-.575-.381,4.533-6.845.575-1.428,17Z" transform="translate(289.617 212.464)"/><path class="d" d="M26.355,37.147l1.285-15.3L15.092,22.9,13.807,38.2l-7.415.623,1.428-17L.976,22.4l.381-4.533L8.2,17.292l1-11.9L9.618.419l25.96,14.574,6.845-.575-.381,4.533-6.845.575-1.428,17Z" transform="translate(302.624 57.608)"/><path class="d" d="M26.355,37.147l1.285-15.3L15.092,22.9,13.807,38.2l-7.415.623,1.428-17L.976,22.4l.381-4.533L8.2,17.292l1-11.9L9.618.419l25.96,14.574,6.845-.575-.381,4.533-6.845.575-1.428,17Z" transform="translate(58.529 308.757)"/><path class="d" d="M26.355,37.147l1.285-15.3L15.092,22.9,13.807,38.2l-7.415.623,1.428-17L.976,22.4l.381-4.533L8.2,17.292l1-11.9L9.618.419l25.96,14.574,6.845-.575-.381,4.533-6.845.575-1.428,17Z" transform="translate(71.536 153.901)"/><path class="d" d="M26.355,37.147l1.285-15.3L15.092,22.9,13.807,38.2l-7.415.623,1.428-17L.976,22.4l.381-4.533L8.2,17.292l1-11.9L9.618.419l25.96,14.574,6.845-.575-.381,4.533-6.845.575-1.428,17Z" transform="translate(65.033 231.329)"/><path class="d" d="M26.355,37.147l1.285-15.3L15.092,22.9,13.807,38.2l-7.415.623,1.428-17L.976,22.4l.381-4.533L8.2,17.292l1-11.9L9.618.419l25.96,14.574,6.845-.575-.381,4.533-6.845.575-1.428,17Z" transform="translate(78.04 76.473)"/><path class="d" d="M26.355,37.147l1.285-15.3L15.092,22.9,13.807,38.2l-7.415.623,1.428-17L.976,22.4l.381-4.533L8.2,17.292l1-11.9L9.618.419l25.96,14.574,6.845-.575-.381,4.533-6.845.575-1.428,17Z" transform="translate(238.196 293.665)"/><path class="d" d="M26.355,37.147l1.285-15.3L15.092,22.9,13.807,38.2l-7.415.623,1.428-17L.976,22.4l.381-4.533L8.2,17.292l1-11.9L9.618.419l25.96,14.574,6.845-.575-.381,4.533-6.845.575-1.428,17Z" transform="translate(251.204 138.809)"/><path class="d" d="M26.355,37.147l1.285-15.3L15.092,22.9,13.807,38.2l-7.415.623,1.428-17L.976,22.4l.381-4.533L8.2,17.292l1-11.9L9.618.419l25.96,14.574,6.845-.575-.381,4.533-6.845.575-1.428,17Z" transform="translate(244.7 216.237)"/><path class="d" d="M26.355,37.147l1.285-15.3L15.092,22.9,13.807,38.2l-7.415.623,1.428-17L.976,22.4l.381-4.533L8.2,17.292l1-11.9L9.618.419l25.96,14.574,6.845-.575-.381,4.533-6.845.575-1.428,17Z" transform="translate(257.707 61.381)"/><path class="d" d="M26.355,37.147l1.285-15.3L15.092,22.9,13.807,38.2l-7.415.623,1.428-17L.976,22.4l.381-4.533L8.2,17.292l1-11.9L9.618.419l25.96,14.574,6.845-.575-.381,4.533-6.845.575-1.428,17Z" transform="translate(148.363 301.211)"/><path class="d" d="M26.355,37.147l1.285-15.3L15.092,22.9,13.807,38.2l-7.415.623,1.428-17L.976,22.4l.381-4.533L8.2,17.292l1-11.9L9.618.419l25.96,14.574,6.845-.575-.381,4.533-6.845.575-1.428,17Z" transform="translate(161.37 146.355)"/><path class="d" d="M26.355,37.147l1.285-15.3L15.092,22.9,13.807,38.2l-7.415.623,1.428-17L.976,22.4l.381-4.533L8.2,17.292l1-11.9L9.618.419l25.96,14.574,6.845-.575-.381,4.533-6.845.575-1.428,17Z" transform="translate(154.866 223.783)"/><path class="d" d="M26.355,37.147l1.285-15.3L15.092,22.9,13.807,38.2l-7.415.623,1.428-17L.976,22.4l.381-4.533L8.2,17.292l1-11.9L9.618.419l25.96,14.574,6.845-.575-.381,4.533-6.845.575-1.428,17Z" transform="translate(167.874 68.927)"/><path class="d" d="M26.355,37.147l1.285-15.3L15.092,22.9,13.807,38.2l-7.415.623,1.428-17L.976,22.4l.381-4.533L8.2,17.292l1-11.9L9.618.419l25.96,14.574,6.845-.575-.381,4.533-6.845.575-1.428,17Z" transform="translate(328.03 286.12)"/><path class="d" d="M26.355,37.147l1.285-15.3L15.092,22.9,13.807,38.2l-7.415.623,1.428-17L.976,22.4l.381-4.533L8.2,17.292l1-11.9L9.618.419l25.96,14.574,6.845-.575-.381,4.533-6.845.575-1.428,17Z" transform="translate(341.037 131.263)"/><path class="d" d="M26.355,37.147l1.285-15.3L15.092,22.9,13.807,38.2l-7.415.623,1.428-17L.976,22.4l.381-4.533L8.2,17.292l1-11.9L9.618.419l25.96,14.574,6.845-.575-.381,4.533-6.845.575-1.428,17Z" transform="translate(334.534 208.691)"/><path class="d" d="M26.355,37.147l1.285-15.3L15.092,22.9,13.807,38.2l-7.415.623,1.428-17L.976,22.4l.381-4.533L8.2,17.292l1-11.9L9.618.419l25.96,14.574,6.845-.575-.381,4.533-6.845.575-1.428,17Z" transform="translate(347.541 53.835)"/><path class="d" d="M26.355,37.147l1.285-15.3L15.092,22.9,13.807,38.2l-7.415.623,1.428-17L.976,22.4l.381-4.533L8.2,17.292l1-11.9L9.618.419l25.96,14.574,6.845-.575-.381,4.533-6.845.575-1.428,17Z" transform="translate(59.947 314.395) rotate(180)"/><path class="d" d="M26.355,37.147l1.285-15.3L15.092,22.9,13.807,38.2l-7.415.623,1.428-17L.976,22.4l.381-4.533L8.2,17.292l1-11.9L9.618.419l25.96,14.574,6.845-.575-.381,4.533-6.845.575-1.428,17Z" transform="translate(72.954 159.539) rotate(180)"/><path class="d" d="M26.355,37.147l1.285-15.3L15.092,22.9,13.807,38.2l-7.415.623,1.428-17L.976,22.4l.381-4.533L8.2,17.292l1-11.9L9.618.419l25.96,14.574,6.845-.575-.381,4.533-6.845.575-1.428,17Z" transform="translate(66.45 236.967) rotate(180)"/><path class="d" d="M26.355,37.147l1.285-15.3L15.092,22.9,13.807,38.2l-7.415.623,1.428-17L.976,22.4l.381-4.533L8.2,17.292l1-11.9L9.618.419l25.96,14.574,6.845-.575-.381,4.533-6.845.575-1.428,17Z" transform="translate(79.458 82.111) rotate(180)"/><path class="d" d="M26.355,37.147l1.285-15.3L15.092,22.9,13.807,38.2l-7.415.623,1.428-17L.976,22.4l.381-4.533L8.2,17.292l1-11.9L9.618.419l25.96,14.574,6.845-.575-.381,4.533-6.845.575-1.428,17Z" transform="translate(239.614 299.304) rotate(180)"/><path class="d" d="M26.355,37.147l1.285-15.3L15.092,22.9,13.807,38.2l-7.415.623,1.428-17L.976,22.4l.381-4.533L8.2,17.292l1-11.9L9.618.419l25.96,14.574,6.845-.575-.381,4.533-6.845.575-1.428,17Z" transform="translate(252.621 144.447) rotate(180)"/><path class="d" d="M26.355,37.147l1.285-15.3L15.092,22.9,13.807,38.2l-7.415.623,1.428-17L.976,22.4l.381-4.533L8.2,17.292l1-11.9L9.618.419l25.96,14.574,6.845-.575-.381,4.533-6.845.575-1.428,17Z" transform="translate(246.118 221.875) rotate(180)"/><path class="d" d="M26.355,37.147l1.285-15.3L15.092,22.9,13.807,38.2l-7.415.623,1.428-17L.976,22.4l.381-4.533L8.2,17.292l1-11.9L9.618.419l25.96,14.574,6.845-.575-.381,4.533-6.845.575-1.428,17Z" transform="translate(259.125 67.019) rotate(180)"/><path class="d" d="M26.355,37.147l1.285-15.3L15.092,22.9,13.807,38.2l-7.415.623,1.428-17L.976,22.4l.381-4.533L8.2,17.292l1-11.9L9.618.419l25.96,14.574,6.845-.575-.381,4.533-6.845.575-1.428,17Z" transform="translate(149.78 306.849) rotate(180)"/><path class="d" d="M26.355,37.147l1.285-15.3L15.092,22.9,13.807,38.2l-7.415.623,1.428-17L.976,22.4l.381-4.533L8.2,17.292l1-11.9L9.618.419l25.96,14.574,6.845-.575-.381,4.533-6.845.575-1.428,17Z" transform="translate(162.788 151.993) rotate(180)"/><path class="d" d="M26.355,37.147l1.285-15.3L15.092,22.9,13.807,38.2l-7.415.623,1.428-17L.976,22.4l.381-4.533L8.2,17.292l1-11.9L9.618.419l25.96,14.574,6.845-.575-.381,4.533-6.845.575-1.428,17Z" transform="translate(156.284 229.421) rotate(180)"/><path class="d" d="M26.355,37.147l1.285-15.3L15.092,22.9,13.807,38.2l-7.415.623,1.428-17L.976,22.4l.381-4.533L8.2,17.292l1-11.9L9.618.419l25.96,14.574,6.845-.575-.381,4.533-6.845.575-1.428,17Z" transform="translate(169.292 74.565) rotate(180)"/><path class="d" d="M26.355,37.147l1.285-15.3L15.092,22.9,13.807,38.2l-7.415.623,1.428-17L.976,22.4l.381-4.533L8.2,17.292l1-11.9L9.618.419l25.96,14.574,6.845-.575-.381,4.533-6.845.575-1.428,17Z" transform="translate(329.448 291.758) rotate(180)"/><path class="d" d="M26.355,37.147l1.285-15.3L15.092,22.9,13.807,38.2l-7.415.623,1.428-17L.976,22.4l.381-4.533L8.2,17.292l1-11.9L9.618.419l25.96,14.574,6.845-.575-.381,4.533-6.845.575-1.428,17Z" transform="translate(342.455 136.902) rotate(180)"/><path class="d" d="M26.355,37.147l1.285-15.3L15.092,22.9,13.807,38.2l-7.415.623,1.428-17L.976,22.4l.381-4.533L8.2,17.292l1-11.9L9.618.419l25.96,14.574,6.845-.575-.381,4.533-6.845.575-1.428,17Z" transform="translate(335.951 214.33) rotate(180)"/><path class="d" d="M26.355,37.147l1.285-15.3L15.092,22.9,13.807,38.2l-7.415.623,1.428-17L.976,22.4l.381-4.533L8.2,17.292l1-11.9L9.618.419l25.96,14.574,6.845-.575-.381,4.533-6.845.575-1.428,17Z" transform="translate(348.959 59.474) rotate(180)"/><path class="d" d="M26.355,37.147l1.285-15.3L15.092,22.9,13.807,38.2l-7.415.623,1.428-17L.976,22.4l.381-4.533L8.2,17.292l1-11.9L9.618.419l25.96,14.574,6.845-.575-.381,4.533-6.845.575-1.428,17Z" transform="translate(104.863 310.622) rotate(180)"/><path class="d" d="M26.355,37.147l1.285-15.3L15.092,22.9,13.807,38.2l-7.415.623,1.428-17L.976,22.4l.381-4.533L8.2,17.292l1-11.9L9.618.419l25.96,14.574,6.845-.575-.381,4.533-6.845.575-1.428,17Z" transform="translate(117.871 155.766) rotate(180)"/><path class="d" d="M26.355,37.147l1.285-15.3L15.092,22.9,13.807,38.2l-7.415.623,1.428-17L.976,22.4l.381-4.533L8.2,17.292l1-11.9L9.618.419l25.96,14.574,6.845-.575-.381,4.533-6.845.575-1.428,17Z" transform="translate(111.367 233.194) rotate(180)"/><path class="d" d="M26.355,37.147l1.285-15.3L15.092,22.9,13.807,38.2l-7.415.623,1.428-17L.976,22.4l.381-4.533L8.2,17.292l1-11.9L9.618.419l25.96,14.574,6.845-.575-.381,4.533-6.845.575-1.428,17Z" transform="translate(124.375 78.338) rotate(180)"/><path class="d" d="M26.355,37.147l1.285-15.3L15.092,22.9,13.807,38.2l-7.415.623,1.428-17L.976,22.4l.381-4.533L8.2,17.292l1-11.9L9.618.419l25.96,14.574,6.845-.575-.381,4.533-6.845.575-1.428,17Z" transform="translate(284.531 295.531) rotate(180)"/><path class="d" d="M26.355,37.147l1.285-15.3L15.092,22.9,13.807,38.2l-7.415.623,1.428-17L.976,22.4l.381-4.533L8.2,17.292l1-11.9L9.618.419l25.96,14.574,6.845-.575-.381,4.533-6.845.575-1.428,17Z" transform="translate(297.538 140.674) rotate(180)"/><path class="d" d="M26.355,37.147l1.285-15.3L15.092,22.9,13.807,38.2l-7.415.623,1.428-17L.976,22.4l.381-4.533L8.2,17.292l1-11.9L9.618.419l25.96,14.574,6.845-.575-.381,4.533-6.845.575-1.428,17Z" transform="translate(291.035 218.103) rotate(180)"/><path class="d" d="M26.355,37.147l1.285-15.3L15.092,22.9,13.807,38.2l-7.415.623,1.428-17L.976,22.4l.381-4.533L8.2,17.292l1-11.9L9.618.419l25.96,14.574,6.845-.575-.381,4.533-6.845.575-1.428,17Z" transform="translate(304.042 63.246) rotate(180)"/><path class="d" d="M26.355,37.147l1.285-15.3L15.092,22.9,13.807,38.2l-7.415.623,1.428-17L.976,22.4l.381-4.533L8.2,17.292l1-11.9L9.618.419l25.96,14.574,6.845-.575-.381,4.533-6.845.575-1.428,17Z" transform="translate(194.697 303.076) rotate(180)"/><path class="d" d="M26.355,37.147l1.285-15.3L15.092,22.9,13.807,38.2l-7.415.623,1.428-17L.976,22.4l.381-4.533L8.2,17.292l1-11.9L9.618.419l25.96,14.574,6.845-.575-.381,4.533-6.845.575-1.428,17Z" transform="translate(207.705 148.22) rotate(180)"/><path class="d" d="M26.355,37.147l1.285-15.3L15.092,22.9,13.807,38.2l-7.415.623,1.428-17L.976,22.4l.381-4.533L8.2,17.292l1-11.9L9.618.419l25.96,14.574,6.845-.575-.381,4.533-6.845.575-1.428,17Z" transform="translate(201.201 225.648) rotate(180)"/><path class="d" d="M26.355,37.147l1.285-15.3L15.092,22.9,13.807,38.2l-7.415.623,1.428-17L.976,22.4l.381-4.533L8.2,17.292l1-11.9L9.618.419l25.96,14.574,6.845-.575-.381,4.533-6.845.575-1.428,17Z" transform="translate(214.208 70.792) rotate(180)"/><path class="d" d="M26.355,37.147l1.285-15.3L15.092,22.9,13.807,38.2l-7.415.623,1.428-17L.976,22.4l.381-4.533L8.2,17.292l1-11.9L9.618.419l25.96,14.574,6.845-.575-.381,4.533-6.845.575-1.428,17Z" transform="translate(374.365 287.985) rotate(180)"/><path class="d" d="M26.355,37.147l1.285-15.3L15.092,22.9,13.807,38.2l-7.415.623,1.428-17L.976,22.4l.381-4.533L8.2,17.292l1-11.9L9.618.419l25.96,14.574,6.845-.575-.381,4.533-6.845.575-1.428,17Z" transform="translate(387.372 133.129) rotate(180)"/><path class="d" d="M26.355,37.147l1.285-15.3L15.092,22.9,13.807,38.2l-7.415.623,1.428-17L.976,22.4l.381-4.533L8.2,17.292l1-11.9L9.618.419l25.96,14.574,6.845-.575-.381,4.533-6.845.575-1.428,17Z" transform="translate(380.868 210.557) rotate(180)"/><path class="d" d="M26.355,37.147l1.285-15.3L15.092,22.9,13.807,38.2l-7.415.623,1.428-17L.976,22.4l.381-4.533L8.2,17.292l1-11.9L9.618.419l25.96,14.574,6.845-.575-.381,4.533-6.845.575-1.428,17Z" transform="translate(393.876 55.701) rotate(180)"/></g><g transform="translate(781.911 237.485) rotate(135)"><path class="d" d="M26.355,37.147l1.285-15.3L15.092,22.9,13.807,38.2l-7.415.623,1.428-17L.976,22.4l.381-4.533L8.2,17.292l1-11.9L9.618.419l25.96,14.574,6.845-.575-.381,4.533-6.845.575-1.428,17Z" transform="translate(13.612 312.53)"/><path class="d" d="M26.355,37.147l1.285-15.3L15.092,22.9,13.807,38.2l-7.415.623,1.428-17L.976,22.4l.381-4.533L8.2,17.292l1-11.9L9.618.419l25.96,14.574,6.845-.575-.381,4.533-6.845.575-1.428,17Z" transform="translate(26.619 157.674)"/><path class="d" d="M26.355,37.147l1.285-15.3L15.092,22.9,13.807,38.2l-7.415.623,1.428-17L.976,22.4l.381-4.533L8.2,17.292l1-11.9L9.618.419l25.96,14.574,6.845-.575-.381,4.533-6.845.575-1.428,17Z" transform="translate(20.116 235.102)"/><path class="d" d="M26.355,37.147l1.285-15.3L15.092,22.9,13.807,38.2l-7.415.623,1.428-17L.976,22.4l.381-4.533L8.2,17.292l1-11.9L9.618.419l25.96,14.574,6.845-.575-.381,4.533-6.845.575-1.428,17Z" transform="translate(33.123 80.245)"/><path class="d" d="M26.355,37.147l1.285-15.3L15.092,22.9,13.807,38.2l-7.415.623,1.428-17L.976,22.4l.381-4.533L8.2,17.292l1-11.9L9.618.419l25.96,14.574,6.845-.575-.381,4.533-6.845.575-1.428,17Z" transform="translate(193.279 297.438)"/><path class="d" d="M26.355,37.147l1.285-15.3L15.092,22.9,13.807,38.2l-7.415.623,1.428-17L.976,22.4l.381-4.533L8.2,17.292l1-11.9L9.618.419l25.96,14.574,6.845-.575-.381,4.533-6.845.575-1.428,17Z" transform="translate(206.287 142.582)"/><path class="d" d="M26.355,37.147l1.285-15.3L15.092,22.9,13.807,38.2l-7.415.623,1.428-17L.976,22.4l.381-4.533L8.2,17.292l1-11.9L9.618.419l25.96,14.574,6.845-.575-.381,4.533-6.845.575-1.428,17Z" transform="translate(199.783 220.01)"/><path class="d" d="M26.355,37.147l1.285-15.3L15.092,22.9,13.807,38.2l-7.415.623,1.428-17L.976,22.4l.381-4.533L8.2,17.292l1-11.9L9.618.419l25.96,14.574,6.845-.575-.381,4.533-6.845.575-1.428,17Z" transform="translate(212.791 65.154)"/><path class="d" d="M26.355,37.147l1.285-15.3L15.092,22.9,13.807,38.2l-7.415.623,1.428-17L.976,22.4l.381-4.533L8.2,17.292l1-11.9L9.618.419l25.96,14.574,6.845-.575-.381,4.533-6.845.575-1.428,17Z" transform="translate(103.446 304.984)"/><path class="d" d="M26.355,37.147l1.285-15.3L15.092,22.9,13.807,38.2l-7.415.623,1.428-17L.976,22.4l.381-4.533L8.2,17.292l1-11.9L9.618.419l25.96,14.574,6.845-.575-.381,4.533-6.845.575-1.428,17Z" transform="translate(116.453 150.128)"/><path class="d" d="M26.355,37.147l1.285-15.3L15.092,22.9,13.807,38.2l-7.415.623,1.428-17L.976,22.4l.381-4.533L8.2,17.292l1-11.9L9.618.419l25.96,14.574,6.845-.575-.381,4.533-6.845.575-1.428,17Z" transform="translate(109.949 227.556)"/><path class="d" d="M26.355,37.147l1.285-15.3L15.092,22.9,13.807,38.2l-7.415.623,1.428-17L.976,22.4l.381-4.533L8.2,17.292l1-11.9L9.618.419l25.96,14.574,6.845-.575-.381,4.533-6.845.575-1.428,17Z" transform="translate(122.957 72.7)"/><path class="d" d="M26.355,37.147l1.285-15.3L15.092,22.9,13.807,38.2l-7.415.623,1.428-17L.976,22.4l.381-4.533L8.2,17.292l1-11.9L9.618.419l25.96,14.574,6.845-.575-.381,4.533-6.845.575-1.428,17Z" transform="translate(283.113 289.892)"/><path class="d" d="M26.355,37.147l1.285-15.3L15.092,22.9,13.807,38.2l-7.415.623,1.428-17L.976,22.4l.381-4.533L8.2,17.292l1-11.9L9.618.419l25.96,14.574,6.845-.575-.381,4.533-6.845.575-1.428,17Z" transform="translate(296.121 135.036)"/><path class="d" d="M26.355,37.147l1.285-15.3L15.092,22.9,13.807,38.2l-7.415.623,1.428-17L.976,22.4l.381-4.533L8.2,17.292l1-11.9L9.618.419l25.96,14.574,6.845-.575-.381,4.533-6.845.575-1.428,17Z" transform="translate(289.617 212.464)"/><path class="d" d="M26.355,37.147l1.285-15.3L15.092,22.9,13.807,38.2l-7.415.623,1.428-17L.976,22.4l.381-4.533L8.2,17.292l1-11.9L9.618.419l25.96,14.574,6.845-.575-.381,4.533-6.845.575-1.428,17Z" transform="translate(302.624 57.608)"/><path class="d" d="M26.355,37.147l1.285-15.3L15.092,22.9,13.807,38.2l-7.415.623,1.428-17L.976,22.4l.381-4.533L8.2,17.292l1-11.9L9.618.419l25.96,14.574,6.845-.575-.381,4.533-6.845.575-1.428,17Z" transform="translate(58.529 308.757)"/><path class="d" d="M26.355,37.147l1.285-15.3L15.092,22.9,13.807,38.2l-7.415.623,1.428-17L.976,22.4l.381-4.533L8.2,17.292l1-11.9L9.618.419l25.96,14.574,6.845-.575-.381,4.533-6.845.575-1.428,17Z" transform="translate(71.536 153.901)"/><path class="d" d="M26.355,37.147l1.285-15.3L15.092,22.9,13.807,38.2l-7.415.623,1.428-17L.976,22.4l.381-4.533L8.2,17.292l1-11.9L9.618.419l25.96,14.574,6.845-.575-.381,4.533-6.845.575-1.428,17Z" transform="translate(65.033 231.329)"/><path class="d" d="M26.355,37.147l1.285-15.3L15.092,22.9,13.807,38.2l-7.415.623,1.428-17L.976,22.4l.381-4.533L8.2,17.292l1-11.9L9.618.419l25.96,14.574,6.845-.575-.381,4.533-6.845.575-1.428,17Z" transform="translate(78.04 76.473)"/><path class="d" d="M26.355,37.147l1.285-15.3L15.092,22.9,13.807,38.2l-7.415.623,1.428-17L.976,22.4l.381-4.533L8.2,17.292l1-11.9L9.618.419l25.96,14.574,6.845-.575-.381,4.533-6.845.575-1.428,17Z" transform="translate(238.196 293.665)"/><path class="d" d="M26.355,37.147l1.285-15.3L15.092,22.9,13.807,38.2l-7.415.623,1.428-17L.976,22.4l.381-4.533L8.2,17.292l1-11.9L9.618.419l25.96,14.574,6.845-.575-.381,4.533-6.845.575-1.428,17Z" transform="translate(251.204 138.809)"/><path class="d" d="M26.355,37.147l1.285-15.3L15.092,22.9,13.807,38.2l-7.415.623,1.428-17L.976,22.4l.381-4.533L8.2,17.292l1-11.9L9.618.419l25.96,14.574,6.845-.575-.381,4.533-6.845.575-1.428,17Z" transform="translate(244.7 216.237)"/><path class="d" d="M26.355,37.147l1.285-15.3L15.092,22.9,13.807,38.2l-7.415.623,1.428-17L.976,22.4l.381-4.533L8.2,17.292l1-11.9L9.618.419l25.96,14.574,6.845-.575-.381,4.533-6.845.575-1.428,17Z" transform="translate(257.707 61.381)"/><path class="d" d="M26.355,37.147l1.285-15.3L15.092,22.9,13.807,38.2l-7.415.623,1.428-17L.976,22.4l.381-4.533L8.2,17.292l1-11.9L9.618.419l25.96,14.574,6.845-.575-.381,4.533-6.845.575-1.428,17Z" transform="translate(148.363 301.211)"/><path class="d" d="M26.355,37.147l1.285-15.3L15.092,22.9,13.807,38.2l-7.415.623,1.428-17L.976,22.4l.381-4.533L8.2,17.292l1-11.9L9.618.419l25.96,14.574,6.845-.575-.381,4.533-6.845.575-1.428,17Z" transform="translate(161.37 146.355)"/><path class="d" d="M26.355,37.147l1.285-15.3L15.092,22.9,13.807,38.2l-7.415.623,1.428-17L.976,22.4l.381-4.533L8.2,17.292l1-11.9L9.618.419l25.96,14.574,6.845-.575-.381,4.533-6.845.575-1.428,17Z" transform="translate(154.866 223.783)"/><path class="d" d="M26.355,37.147l1.285-15.3L15.092,22.9,13.807,38.2l-7.415.623,1.428-17L.976,22.4l.381-4.533L8.2,17.292l1-11.9L9.618.419l25.96,14.574,6.845-.575-.381,4.533-6.845.575-1.428,17Z" transform="translate(167.874 68.927)"/><path class="d" d="M26.355,37.147l1.285-15.3L15.092,22.9,13.807,38.2l-7.415.623,1.428-17L.976,22.4l.381-4.533L8.2,17.292l1-11.9L9.618.419l25.96,14.574,6.845-.575-.381,4.533-6.845.575-1.428,17Z" transform="translate(328.03 286.12)"/><path class="d" d="M26.355,37.147l1.285-15.3L15.092,22.9,13.807,38.2l-7.415.623,1.428-17L.976,22.4l.381-4.533L8.2,17.292l1-11.9L9.618.419l25.96,14.574,6.845-.575-.381,4.533-6.845.575-1.428,17Z" transform="translate(341.037 131.263)"/><path class="d" d="M26.355,37.147l1.285-15.3L15.092,22.9,13.807,38.2l-7.415.623,1.428-17L.976,22.4l.381-4.533L8.2,17.292l1-11.9L9.618.419l25.96,14.574,6.845-.575-.381,4.533-6.845.575-1.428,17Z" transform="translate(334.534 208.691)"/><path class="d" d="M26.355,37.147l1.285-15.3L15.092,22.9,13.807,38.2l-7.415.623,1.428-17L.976,22.4l.381-4.533L8.2,17.292l1-11.9L9.618.419l25.96,14.574,6.845-.575-.381,4.533-6.845.575-1.428,17Z" transform="translate(347.541 53.835)"/><path class="d" d="M26.355,37.147l1.285-15.3L15.092,22.9,13.807,38.2l-7.415.623,1.428-17L.976,22.4l.381-4.533L8.2,17.292l1-11.9L9.618.419l25.96,14.574,6.845-.575-.381,4.533-6.845.575-1.428,17Z" transform="translate(59.947 314.395) rotate(180)"/><path class="d" d="M26.355,37.147l1.285-15.3L15.092,22.9,13.807,38.2l-7.415.623,1.428-17L.976,22.4l.381-4.533L8.2,17.292l1-11.9L9.618.419l25.96,14.574,6.845-.575-.381,4.533-6.845.575-1.428,17Z" transform="translate(72.954 159.539) rotate(180)"/><path class="d" d="M26.355,37.147l1.285-15.3L15.092,22.9,13.807,38.2l-7.415.623,1.428-17L.976,22.4l.381-4.533L8.2,17.292l1-11.9L9.618.419l25.96,14.574,6.845-.575-.381,4.533-6.845.575-1.428,17Z" transform="translate(66.45 236.967) rotate(180)"/><path class="d" d="M26.355,37.147l1.285-15.3L15.092,22.9,13.807,38.2l-7.415.623,1.428-17L.976,22.4l.381-4.533L8.2,17.292l1-11.9L9.618.419l25.96,14.574,6.845-.575-.381,4.533-6.845.575-1.428,17Z" transform="translate(79.458 82.111) rotate(180)"/><path class="d" d="M26.355,37.147l1.285-15.3L15.092,22.9,13.807,38.2l-7.415.623,1.428-17L.976,22.4l.381-4.533L8.2,17.292l1-11.9L9.618.419l25.96,14.574,6.845-.575-.381,4.533-6.845.575-1.428,17Z" transform="translate(239.614 299.304) rotate(180)"/><path class="d" d="M26.355,37.147l1.285-15.3L15.092,22.9,13.807,38.2l-7.415.623,1.428-17L.976,22.4l.381-4.533L8.2,17.292l1-11.9L9.618.419l25.96,14.574,6.845-.575-.381,4.533-6.845.575-1.428,17Z" transform="translate(252.621 144.447) rotate(180)"/><path class="d" d="M26.355,37.147l1.285-15.3L15.092,22.9,13.807,38.2l-7.415.623,1.428-17L.976,22.4l.381-4.533L8.2,17.292l1-11.9L9.618.419l25.96,14.574,6.845-.575-.381,4.533-6.845.575-1.428,17Z" transform="translate(246.118 221.875) rotate(180)"/><path class="d" d="M26.355,37.147l1.285-15.3L15.092,22.9,13.807,38.2l-7.415.623,1.428-17L.976,22.4l.381-4.533L8.2,17.292l1-11.9L9.618.419l25.96,14.574,6.845-.575-.381,4.533-6.845.575-1.428,17Z" transform="translate(259.125 67.019) rotate(180)"/><path class="d" d="M26.355,37.147l1.285-15.3L15.092,22.9,13.807,38.2l-7.415.623,1.428-17L.976,22.4l.381-4.533L8.2,17.292l1-11.9L9.618.419l25.96,14.574,6.845-.575-.381,4.533-6.845.575-1.428,17Z" transform="translate(149.78 306.849) rotate(180)"/><path class="d" d="M26.355,37.147l1.285-15.3L15.092,22.9,13.807,38.2l-7.415.623,1.428-17L.976,22.4l.381-4.533L8.2,17.292l1-11.9L9.618.419l25.96,14.574,6.845-.575-.381,4.533-6.845.575-1.428,17Z" transform="translate(162.788 151.993) rotate(180)"/><path class="d" d="M26.355,37.147l1.285-15.3L15.092,22.9,13.807,38.2l-7.415.623,1.428-17L.976,22.4l.381-4.533L8.2,17.292l1-11.9L9.618.419l25.96,14.574,6.845-.575-.381,4.533-6.845.575-1.428,17Z" transform="translate(156.284 229.421) rotate(180)"/><path class="d" d="M26.355,37.147l1.285-15.3L15.092,22.9,13.807,38.2l-7.415.623,1.428-17L.976,22.4l.381-4.533L8.2,17.292l1-11.9L9.618.419l25.96,14.574,6.845-.575-.381,4.533-6.845.575-1.428,17Z" transform="translate(169.292 74.565) rotate(180)"/><path class="d" d="M26.355,37.147l1.285-15.3L15.092,22.9,13.807,38.2l-7.415.623,1.428-17L.976,22.4l.381-4.533L8.2,17.292l1-11.9L9.618.419l25.96,14.574,6.845-.575-.381,4.533-6.845.575-1.428,17Z" transform="translate(329.448 291.758) rotate(180)"/><path class="d" d="M26.355,37.147l1.285-15.3L15.092,22.9,13.807,38.2l-7.415.623,1.428-17L.976,22.4l.381-4.533L8.2,17.292l1-11.9L9.618.419l25.96,14.574,6.845-.575-.381,4.533-6.845.575-1.428,17Z" transform="translate(342.455 136.902) rotate(180)"/><path class="d" d="M26.355,37.147l1.285-15.3L15.092,22.9,13.807,38.2l-7.415.623,1.428-17L.976,22.4l.381-4.533L8.2,17.292l1-11.9L9.618.419l25.96,14.574,6.845-.575-.381,4.533-6.845.575-1.428,17Z" transform="translate(335.951 214.33) rotate(180)"/><path class="d" d="M26.355,37.147l1.285-15.3L15.092,22.9,13.807,38.2l-7.415.623,1.428-17L.976,22.4l.381-4.533L8.2,17.292l1-11.9L9.618.419l25.96,14.574,6.845-.575-.381,4.533-6.845.575-1.428,17Z" transform="translate(348.959 59.474) rotate(180)"/><path class="d" d="M26.355,37.147l1.285-15.3L15.092,22.9,13.807,38.2l-7.415.623,1.428-17L.976,22.4l.381-4.533L8.2,17.292l1-11.9L9.618.419l25.96,14.574,6.845-.575-.381,4.533-6.845.575-1.428,17Z" transform="translate(104.863 310.622) rotate(180)"/><path class="d" d="M26.355,37.147l1.285-15.3L15.092,22.9,13.807,38.2l-7.415.623,1.428-17L.976,22.4l.381-4.533L8.2,17.292l1-11.9L9.618.419l25.96,14.574,6.845-.575-.381,4.533-6.845.575-1.428,17Z" transform="translate(117.871 155.766) rotate(180)"/><path class="d" d="M26.355,37.147l1.285-15.3L15.092,22.9,13.807,38.2l-7.415.623,1.428-17L.976,22.4l.381-4.533L8.2,17.292l1-11.9L9.618.419l25.96,14.574,6.845-.575-.381,4.533-6.845.575-1.428,17Z" transform="translate(111.367 233.194) rotate(180)"/><path class="d" d="M26.355,37.147l1.285-15.3L15.092,22.9,13.807,38.2l-7.415.623,1.428-17L.976,22.4l.381-4.533L8.2,17.292l1-11.9L9.618.419l25.96,14.574,6.845-.575-.381,4.533-6.845.575-1.428,17Z" transform="translate(124.375 78.338) rotate(180)"/><path class="d" d="M26.355,37.147l1.285-15.3L15.092,22.9,13.807,38.2l-7.415.623,1.428-17L.976,22.4l.381-4.533L8.2,17.292l1-11.9L9.618.419l25.96,14.574,6.845-.575-.381,4.533-6.845.575-1.428,17Z" transform="translate(284.531 295.531) rotate(180)"/><path class="d" d="M26.355,37.147l1.285-15.3L15.092,22.9,13.807,38.2l-7.415.623,1.428-17L.976,22.4l.381-4.533L8.2,17.292l1-11.9L9.618.419l25.96,14.574,6.845-.575-.381,4.533-6.845.575-1.428,17Z" transform="translate(297.538 140.674) rotate(180)"/><path class="d" d="M26.355,37.147l1.285-15.3L15.092,22.9,13.807,38.2l-7.415.623,1.428-17L.976,22.4l.381-4.533L8.2,17.292l1-11.9L9.618.419l25.96,14.574,6.845-.575-.381,4.533-6.845.575-1.428,17Z" transform="translate(291.035 218.103) rotate(180)"/><path class="d" d="M26.355,37.147l1.285-15.3L15.092,22.9,13.807,38.2l-7.415.623,1.428-17L.976,22.4l.381-4.533L8.2,17.292l1-11.9L9.618.419l25.96,14.574,6.845-.575-.381,4.533-6.845.575-1.428,17Z" transform="translate(304.042 63.246) rotate(180)"/><path class="d" d="M26.355,37.147l1.285-15.3L15.092,22.9,13.807,38.2l-7.415.623,1.428-17L.976,22.4l.381-4.533L8.2,17.292l1-11.9L9.618.419l25.96,14.574,6.845-.575-.381,4.533-6.845.575-1.428,17Z" transform="translate(194.697 303.076) rotate(180)"/><path class="d" d="M26.355,37.147l1.285-15.3L15.092,22.9,13.807,38.2l-7.415.623,1.428-17L.976,22.4l.381-4.533L8.2,17.292l1-11.9L9.618.419l25.96,14.574,6.845-.575-.381,4.533-6.845.575-1.428,17Z" transform="translate(207.705 148.22) rotate(180)"/><path class="d" d="M26.355,37.147l1.285-15.3L15.092,22.9,13.807,38.2l-7.415.623,1.428-17L.976,22.4l.381-4.533L8.2,17.292l1-11.9L9.618.419l25.96,14.574,6.845-.575-.381,4.533-6.845.575-1.428,17Z" transform="translate(201.201 225.648) rotate(180)"/><path class="d" d="M26.355,37.147l1.285-15.3L15.092,22.9,13.807,38.2l-7.415.623,1.428-17L.976,22.4l.381-4.533L8.2,17.292l1-11.9L9.618.419l25.96,14.574,6.845-.575-.381,4.533-6.845.575-1.428,17Z" transform="translate(214.208 70.792) rotate(180)"/><path class="d" d="M26.355,37.147l1.285-15.3L15.092,22.9,13.807,38.2l-7.415.623,1.428-17L.976,22.4l.381-4.533L8.2,17.292l1-11.9L9.618.419l25.96,14.574,6.845-.575-.381,4.533-6.845.575-1.428,17Z" transform="translate(374.365 287.985) rotate(180)"/><path class="d" d="M26.355,37.147l1.285-15.3L15.092,22.9,13.807,38.2l-7.415.623,1.428-17L.976,22.4l.381-4.533L8.2,17.292l1-11.9L9.618.419l25.96,14.574,6.845-.575-.381,4.533-6.845.575-1.428,17Z" transform="translate(387.372 133.129) rotate(180)"/><path class="d" d="M26.355,37.147l1.285-15.3L15.092,22.9,13.807,38.2l-7.415.623,1.428-17L.976,22.4l.381-4.533L8.2,17.292l1-11.9L9.618.419l25.96,14.574,6.845-.575-.381,4.533-6.845.575-1.428,17Z" transform="translate(380.868 210.557) rotate(180)"/><path class="d" d="M26.355,37.147l1.285-15.3L15.092,22.9,13.807,38.2l-7.415.623,1.428-17L.976,22.4l.381-4.533L8.2,17.292l1-11.9L9.618.419l25.96,14.574,6.845-.575-.381,4.533-6.845.575-1.428,17Z" transform="translate(393.876 55.701) rotate(180)"/></g></g></g></g></svg>